<svg width="721" height="471" viewBox="0 0 721 471" fill="none" xmlns="http://www.w3.org/2000/svg">
<g clip-path="url(#clip0_2_46)">
<path d="M680.16 -1.95317e-05H680.04L648.31 0.28998L620.53 1.46998L595.52 3.27998L573.76 5.40998L556.07 7.59998L542.56 9.52998C526.04 12.36 496.69 18.05 496.69 18.05L475.92 21.96L454.21 26.79L433.26 32.04L413.53 37.31L383.32 46.11L360.51 53.18C359.44 53.51 358.7 54.5 358.68 55.64L358.49 67.66C358.46 69.21 357.2 70.24 355.88 70.24C355.28 70.24 354.66 70.02 354.15 69.55L344.21 60.36C343.73 59.91 343.1 59.67 342.46 59.67C342.17 59.67 341.87 59.72 341.58 59.83L311.3 70.85L291.41 78.93L268.66 88.76L264.05 90.62L229.6 106.47L209.4 116.35L203.76 119.27C203.38 119.47 202.97 119.56 202.58 119.56C201.22 119.56 199.99 118.46 199.99 116.94V64.26L199.73 58.27L199.7 57.97L198.78 52.16C198.76 52.05 198.74 51.94 198.71 51.83L197.12 46.41C197.08 46.29 197.04 46.17 196.99 46.06C196.5 44.99 196.78 43.71 197.68 42.95L198.99 41.84L199.15 41.69L202.78 38.05C208.9 31.91 208.78 21.87 202.51 15.89L192.04 5.88998C189.84 3.78998 186.92 2.61998 183.89 2.61998H10.3701C1.37009 2.61998 -3.33991 13.41 2.73009 20.12L17.0501 35.94L17.2901 36.17L21.2501 39.56L21.4401 39.71L21.7301 39.92C22.5701 40.51 22.9801 41.55 22.7901 42.57L22.0601 46.33C22.0401 46.44 22.0201 46.55 22.0201 46.67L21.5901 53.36V53.52V154.6V154.8L22.2601 163.5C22.2701 163.64 22.2901 163.78 22.3201 163.91L24.3001 172.24C24.3301 172.37 24.3701 172.5 24.4301 172.63L27.4101 179.91C27.4601 180.03 27.5201 180.14 27.5801 180.25L31.2201 186.37L31.4101 186.65L35.2901 191.58L35.4701 191.78L39.3101 195.74L39.5101 195.93L45.0001 200.5L45.1501 200.62L76.5501 223.1C78.1001 224.21 77.9801 226.58 76.3201 227.52L30.1301 253.55C24.1901 256.9 20.5001 263.23 20.4901 270.09L20.2801 393.23V393.39L20.5801 398.58L20.6101 398.84L21.4401 404.07C21.4601 404.19 21.4801 404.3 21.5201 404.41L22.9901 409.34C23.0201 409.44 23.0501 409.54 23.1001 409.64L25.0201 414.07L25.1701 414.36L27.5501 418.36L27.7501 418.65L30.9601 422.7L31.0401 422.77L30.2401 424.35L30.1701 424.5L27.8801 429.85L27.7901 430.08L25.3501 437.64L25.2901 437.87L23.9701 443.74C22.9701 448.2 24.3701 452.86 27.6501 456.01L39.6401 467.52C42.1801 469.95 45.4601 471.2 48.7601 471.2C51.4301 471.2 54.1101 470.39 56.4201 468.73L80.3401 451.57L104.02 435.03L134.7 414.12L165.79 393.69L190.33 378.15L229.36 354.39L229.16 354.12L263.74 334.82L287.68 322.26L310.11 311.05L330.25 301.45L360.61 287.71L377.93 280.29L377.95 280.31L414.63 267.67L438.83 259.9L460.4 253.35L478.86 248.08L505.3 241.14L526.52 236.07C527.68 235.79 528.5 234.75 528.51 233.55L528.63 222.67C528.65 221.11 529.92 220.08 531.24 220.08C531.88 220.08 532.53 220.32 533.05 220.85L542.39 230.27C542.88 230.76 543.54 231.03 544.22 231.03C544.37 231.03 544.52 231.02 544.67 230.99L565.14 227.32L577.53 225.37L602.46 222.25L626.25 220.04L648.02 218.61L666.68 217.72L681.18 217.31L711.43 216.97C720 216.87 724.51 206.66 718.86 200.15L703.88 182.88L703.73 182.72L699.33 178.43L699.14 178.26L694.32 174.42C693.66 173.89 693.29 173.07 693.34 172.22L693.43 170.65V170.5V130.76C693.43 130.03 693.13 129.33 692.59 128.83L690.21 126.63C689.34 125.82 689.12 124.52 689.68 123.46L692.91 117.41C693.09 117.09 693.19 116.73 693.22 116.37L693.59 111.36V111.17L693.81 58.99V58.76L693.2 51.53C693.19 51.4 693.17 51.26 693.14 51.12L691.43 44.11C691.4 43.97 691.35 43.84 691.3 43.71L690.68 42.26L691.16 41.82L695.66 36.97L695.8 36.81L701.7 29.3C704.98 25.12 704.63 19.13 700.9 15.37L689.45 3.84998C686.99 1.36998 683.66 -0.0200195 680.19 -0.0200195" fill="white"/>
<g style="mix-blend-mode:darken">
<path fill-rule="evenodd" clip-rule="evenodd" d="M201.98 356.19L52.9998 456.39L52.0498 454.98L201.03 354.79L201.98 356.19ZM368.24 270.87L359.95 274.4L351.79 277.92L343.82 281.45L335.98 284.94L328.32 288.41L320.85 291.85L313.6 295.23L306.58 298.54L299.8 301.75L293.26 304.89L287 307.93L281.05 310.86L275.38 313.65L270.07 316.33L265.05 318.85L260.41 321.22L256.13 323.41L252.22 325.43L248.73 327.25L245.64 328.86L242.99 330.26L240.79 331.43L239.05 332.35L237.78 333.01L237.01 333.44L236.78 333.59L235.93 332.11L236.21 331.96L236.98 331.54L238.25 330.84L239.99 329.92L242.19 328.75L244.87 327.35L247.96 325.74L251.45 323.93L255.36 321.9L259.64 319.72L264.28 317.35L269.3 314.83L274.65 312.15L280.32 309.35L286.27 306.42L292.54 303.39L299.07 300.25L305.85 297L312.9 293.69L320.15 290.31L327.63 286.87L335.28 283.4L343.12 279.91L351.13 276.38L359.29 272.86L367.57 269.33L368.24 270.87ZM101.29 336.33H99.5998V244.82H101.29V336.33ZM698.09 203.87L692.93 203.9L687.55 204L681.96 204.17L676.22 204.4L670.33 204.7L664.33 205.05L658.24 205.44L652.09 205.88L645.91 206.33L639.72 206.85L633.55 207.36L627.42 207.92L621.36 208.48L615.41 209.07L609.57 209.65L603.88 210.24L598.37 210.83L593.06 211.4L587.97 211.96L583.16 212.52L578.6 213.05L574.37 213.54L570.48 214.03L566.93 214.46L563.77 214.84L561.04 215.19L558.74 215.48L556.9 215.71L555.56 215.89L554.73 216L554.44 216.03L554.21 214.34L554.51 214.31L555.33 214.2L556.67 214.03L558.52 213.79L560.81 213.51L563.55 213.16L566.71 212.78L570.25 212.33L574.18 211.85L578.41 211.36L582.97 210.83L587.78 210.27L592.86 209.71L598.17 209.14L603.68 208.55L609.38 207.97L615.22 207.38L621.21 206.79L627.27 206.23L633.4 205.67L639.58 205.16L645.77 204.65L651.97 204.19L658.12 203.75L664.22 203.36L670.24 203.01L676.14 202.71L681.88 202.48L687.5 202.32L692.88 202.21L698.08 202.18V203.87H698.09ZM517.72 154.26L516.83 222.82L515.92 223.07L515.05 223.28L513.7 223.64L511.83 224.13L509.46 224.73L506.65 225.44L503.44 226.27L499.84 227.22L495.85 228.29L491.54 229.44L486.91 230.69L482 232.03L476.85 233.45L471.48 234.95L465.92 236.53L460.18 238.16L454.3 239.87L448.3 241.64L442.23 243.45L436.1 245.32L429.93 247.23L423.75 249.17L417.6 251.15L411.54 253.15L405.51 255.18L399.62 257.19L393.87 259.23L388.27 261.3L387.68 259.71L393.29 257.65L399.08 255.61L404.97 253.55L410.99 251.54L417.09 249.54L423.24 247.55L429.42 245.62L435.58 243.71L441.76 241.84L447.83 240.02L453.83 238.26L459.7 236.55L465.45 234.92L471.06 233.34L476.42 231.84L481.58 230.42L486.47 229.08L491.1 227.83L495.41 226.68L499.4 225.6L503 224.65L506.25 223.79L509.06 223.07L511.39 222.47L513.26 221.98L514.66 221.63L515.15 221.52L516.03 154.22L517.72 154.26ZM683.27 135.27L683.34 136.11L683.44 137.44L683.55 139.17L683.67 141.26L683.8 143.68L683.93 146.33L684.04 149.16L684.13 152.15L684.18 155.2V158.27L684.15 161.28L684.06 164.22L683.9 166.99L683.66 169.55L683.31 171.86L682.87 173.86L682.32 175.42L680.74 174.86L681.25 173.38L681.65 171.56L681.96 169.36L682.2 166.84L682.36 164.14L682.45 161.24L682.49 158.26V155.19L682.44 152.18L682.34 149.23L682.23 146.4L682.1 143.75L681.98 141.36L681.85 139.26L681.74 137.53L681.64 136.25L681.57 135.41L681.55 135.11L683.24 135L683.26 135.26L683.27 135.27ZM270.31 247.46H268.62V117.66H270.31V247.46ZM423.18 98.9399L423.73 99.1699L424.09 99.4199L424.38 99.7199L424.48 99.9599L423.56 100.27L423.04 100.78L422.99 100.7L422.94 100.67L422.76 100.6L422.33 100.52H421.67L420.69 100.63L419.37 100.92L417.7 101.4L415.61 102.11L413.1 103.13L410.12 104.47L407.64 105.82L405.22 107.42L402.94 109.24L400.75 111.22L398.69 113.34L396.76 115.5L394.99 117.65L393.42 119.76L392.01 121.76L390.78 123.6L389.73 125.23L388.92 126.58L388.31 127.64L387.95 128.29L387.84 128.52L386.34 127.71L386.48 127.47L386.85 126.79L387.46 125.72L388.3 124.35L389.35 122.68L390.61 120.81L392.07 118.77L393.69 116.62L395.49 114.4L397.45 112.2L399.58 110.01L401.84 107.95L404.23 106.06L406.77 104.36L409.39 102.98L412.44 101.6L415.03 100.55L417.2 99.7999L418.98 99.2799L420.41 98.9799L421.56 98.8399H422.48L423.2 98.9399H423.18ZM351.32 237.09L351.27 237.41L351.2 238.07L351.22 239.1L351.44 240.38L351.97 241.87L352.97 243.52L351.49 244.41L350.43 242.61L349.79 240.82L349.53 239.24L349.51 238L349.58 237.16L349.64 236.92V88.0399H351.32V237.1V237.09ZM110.02 68.8099L110.47 68.8799L110.51 68.8999H119.1V70.5899H110.25L110.07 70.5399L109.83 70.4999L109.43 70.4699L108.99 70.4999L108.48 70.6599L107.94 70.9899L107.39 71.5299L106.9 72.3699L106.46 73.6199L106.15 75.3299L106.02 77.5999V136.74L106.05 136.94L106.21 137.72L106.57 138.86L107.15 140.23L108.04 141.72L109.27 143.19L109.76 143.62L110.71 144.36L112.05 145.35L113.75 146.58L115.77 147.99L118.05 149.6L120.6 151.36L123.35 153.27L126.29 155.27L129.36 157.38L132.54 159.55L135.8 161.77L139.09 164.01L142.4 166.26L145.67 168.46L148.89 170.63L151.99 172.72L154.97 174.73L157.78 176.61L160.39 178.37L162.76 179.97L164.87 181.37L166.67 182.58L168.13 183.55L169.19 184.29L169.89 184.73L170.07 184.86L170.2 184.91L170.79 185.21L171.67 185.72L172.85 186.44L174.25 187.41L175.83 188.61L177.53 190.09L179.33 191.83L181.17 193.85L183 196.2L184.8 198.86L186.53 201.85L188.07 205.17L189.47 208.87L190.63 212.9L191.49 217.35L192.08 222.16L192.26 227.38V328.45H190.57V227.41L190.39 222.31L189.84 217.61L188.97 213.31L187.85 209.38L186.53 205.83L185.02 202.62L183.37 199.73L181.64 197.18L179.87 194.94L178.11 193L176.38 191.33L174.75 189.92L173.24 188.77L171.92 187.87L170.82 187.19L169.97 186.71L169.46 186.45L169.18 186.32L168.93 186.12L168.27 185.68L167.17 184.94L165.71 183.97L163.91 182.76L161.8 181.37L159.43 179.76L156.82 178L154.01 176.13L151.03 174.12L147.92 172.03L144.71 169.86L141.44 167.65L138.13 165.41L134.84 163.17L131.58 160.95L128.4 158.78L125.34 156.67L122.4 154.67L119.65 152.76L117.1 151L114.78 149.38L112.76 147.94L111.05 146.7L109.67 145.71L108.68 144.94L108.04 144.41L106.63 142.72L105.64 141.01L104.98 139.46L104.55 138.17L104.39 137.29L104.31 136.9V77.5699L104.44 75.1499L104.79 73.1899L105.35 71.6499L106.06 70.4699L106.91 69.6499L107.77 69.1399L108.66 68.8599L109.43 68.7799L110.02 68.8199V68.8099ZM612.83 61.3599L609.57 61.8399L606.94 62.5099L604.75 63.3199L602.99 64.2599L601.61 65.2499L600.59 66.2599L599.81 67.2899L599.3 68.2799L598.97 69.2199L598.8 70.0499L598.71 70.7399V71.3099L598.74 71.6399L598.76 71.7399L597.07 71.9699L597.05 71.7899L597.03 71.3499V70.6599L597.1 69.7799L597.36 68.7299L597.76 67.6099L598.39 66.3999L599.3 65.1499L600.51 63.9599L602.11 62.8199L604.05 61.7699L606.43 60.8799L609.28 60.1699L612.58 59.6799L612.84 61.3599H612.83ZM509.83 45.6199L464.53 176.31L462.95 175.75L508.25 45.0699L509.83 45.6199ZM191.26 36.4699L182.55 42.0199L183.25 42.8399L184.11 44.1399L185.03 45.8099L185.87 47.8799L186.61 50.3799L187.1 53.2799L187.28 56.6199V123.37L138.02 148.88L137.26 147.38L185.6 122.35V56.6799L185.41 53.4799L184.95 50.7599L184.29 48.4399L183.48 46.5499L182.67 45.0299L181.88 43.8699L181.24 43.0799L180.8 42.6199L179.81 41.7399L190.34 35.0299L191.26 36.4599V36.4699ZM686.43 31.1699L676.55 39.4099L676.73 39.7099L677.35 40.7799L678.04 42.1899L678.83 43.9199L679.62 45.9199L680.36 48.1499L680.97 50.5699L681.37 53.1199L681.53 55.7799V116.7L680.46 116.78L679.65 116.83L678.32 116.9L676.56 117.01L674.37 117.16L671.8 117.32L668.88 117.52L665.67 117.75L662.18 117.97L658.47 118.23L654.57 118.5L650.51 118.8L646.36 119.11L642.12 119.42L637.86 119.73L633.62 120.06L629.4 120.42L625.26 120.75L621.23 121.1L617.36 121.45L613.71 121.8L610.29 122.13L607.13 122.47L604.3 122.8L601.8 123.13L599.73 123.43L598.76 123.61V156.87H597.07V122.18L599.47 121.77L601.59 121.44L604.09 121.11L606.95 120.78L610.11 120.45L613.56 120.12L617.21 119.76L621.09 119.41L625.11 119.06L629.25 118.73L633.48 118.38L637.75 118.05L642.02 117.74L646.26 117.43L650.41 117.12L654.47 116.82L658.36 116.54L662.07 116.28L665.56 116.06L668.78 115.84L671.7 115.63L674.27 115.47L676.47 115.32L678.23 115.22L679.55 115.14L679.84 115.12V55.8099L679.68 53.2899L679.32 50.8899L678.76 48.6199L678.06 46.4999L677.31 44.5699L676.56 42.9099L675.87 41.5699L675.3 40.5399L674.92 39.9199L674.36 39.0799L685.4 29.8799L686.47 31.1599L686.43 31.1699Z" fill="#B2875A"/>
</g>
<g style="mix-blend-mode:darken">
<path fill-rule="evenodd" clip-rule="evenodd" d="M85.33 291.12L85.27 326.34L85.56 330.25L86.33 334.19L87.85 337.79L88.87 339.31L90.2 340.64L91.78 341.75L93.72 342.6L95.98 343.17L98.72 343.34L100.6 343.26L103.72 342.76L107.64 341.59L111.84 339.43L113.9 337.92L115.86 336.03L117.73 333.76L119.35 331.08L120.72 327.86L121.82 324.15L122.55 319.86L122.82 314.93V269.8L123.15 269.63L172.7 244.08L173.58 243.62V244.61L173.77 304.18L173.93 310.51V314.19L173.65 318.01V318.04V318.07L172.99 322.03V322.07L172.97 322.11L171.77 326.09V326.14L171.74 326.18L169.83 330.13L169.81 330.18L169.78 330.22L168.14 332.51L175.5 333.62H175.52H175.54L182.72 335.3H182.75L182.78 335.32L185.85 336.43L185.9 336.45L185.95 336.48L188.74 338.15L189.62 338.67L188.74 339.19L171.86 349.2L154.13 360.09L132.09 374.08L104.88 392.04L75.72 411.68L41.79 434.74L40.36 435.71L40.87 434.06L41.86 430.84V430.81L41.88 430.78L44.01 425.63V425.6L44.04 425.57L48.27 417.8V417.78L48.3 417.76L51.35 413.13V413.11L51.38 413.09L54.1 409.54L50.34 408.63H50.3L50.26 408.61L45.37 406.72L45.32 406.7L45.28 406.68L42.89 405.28L42.85 405.26L42.81 405.23L40.66 403.47L40.61 403.43L40.57 403.37L38.18 400.25L38.13 400.19L38.1 400.12L36.3 395.86L36.28 395.8V395.74L35.13 390V389.96L35.12 389.92L34.75 382.32V320.1L35.05 319.92L84.41 290.59L85.33 290.04V291.11V291.12ZM255.08 207.72L254.79 239.65L255.16 244.78L255.75 247.43L256.83 249.94L258.51 252.16L260.92 253.96L264.25 255.19L268.74 255.64L272.06 255.38L275.77 254.41L279.55 252.68L283.17 250.01L284.86 248.29L286.41 246.31L287.81 243.99L289.05 241.38L290.03 238.39L290.82 235.04L291.31 231.32L291.47 227.14L291.95 191.45V191.05L292.33 190.9L307.4 184.76L320.67 179.51L333.89 174.65L334.71 174.35V175.23L334.43 225.6L334.58 232.23L335.11 235.71L336.26 239.24L338.24 242.87L341.34 246.51L345.82 250.16L352.82 254.27L353.87 254.89L352.74 255.36L342.09 259.77L315.2 271.7L296.39 280.54L274.56 291.21L250.16 303.71L222.58 318.55L221.24 319.27L221.71 317.83L222.72 314.76V314.73L222.74 314.7L225.04 309.35V309.32L225.07 309.29L229.55 301.19V301.17L229.57 301.15L232.76 296.27L232.77 296.24L235.89 292.04H235.81H235.8H232.58H232.52H232.46L228.73 291.3H228.67L228.61 291.26L224.68 289.59L224.62 289.56L224.57 289.52L220.75 286.81L220.7 286.78L220.66 286.74L218.86 284.89L218.84 284.87L218.82 284.84L217.15 282.69L217.13 282.66L217.11 282.63L215.58 280.1L215.56 280.07V280.04L214.24 277.16V277.13L214.22 277.1L213.15 273.83V273.8L213.13 273.77L212.34 270.07V270.05V270.03L211.81 265.93V265.9V265.87L211.63 261.31V226.26L211.98 226.1L225.74 219.63L239.05 213.62L254.24 207.14L255.09 206.78V207.71L255.08 207.72ZM459.19 135.52L439.52 188.91L451.22 186.46L459.51 184.37L468.29 181.31L472.67 179.36L477.01 177.01L481.25 174.29L485.34 171.07L489.23 167.38L492.84 163.13L496.16 158.3L500.03 151.13L500.31 150.61L500.84 150.87L500.89 150.9L501.23 151.07V151.45L500.61 208.76V209.23L500.15 209.34L488.46 212.2L459.26 219.87L440.27 225.2L419.57 231.37L398.05 238.29L375.67 246.07L374.46 246.49L374.9 245.29L410.16 149.17L410.27 148.88L410.56 148.79L458.47 134.72L459.63 134.38L459.21 135.51L459.19 135.52ZM665.45 128.45V161.34L665.15 165.91V165.97L665.13 166.03L664.16 169.73L664.14 169.81L664.1 169.88L662.37 172.87L662.33 172.94L662.28 173L660.98 174.32L661.79 174.58H661.81L661.83 174.59L667.78 176.96H667.8L667.82 176.98L671.46 178.77H671.48L671.5 178.79L675.17 180.92L675.2 180.94L675.23 180.96L678.74 183.51L678.77 183.53L678.8 183.56L682.71 187.34L683.86 188.45L682.27 188.38L675.7 188.11L661.06 187.88L639 188.39L625.78 189.16L611.42 190.36L584.2 193.37L562.89 196.18L542.95 199.22L541.62 199.42L542.35 198.29L543.87 195.92V195.9L543.9 195.88L546.64 192.23L546.66 192.2L546.68 192.18L551.15 187.42L551.17 187.4L551.2 187.38L554.04 184.95L554.06 184.93L554.08 184.91L555.28 184.06L554.93 183.99H554.88L554.83 183.96L551.95 182.81L551.91 182.79L551.87 182.77L548.55 180.86L548.49 180.83L548.44 180.79L545.15 177.83L545.11 177.79L545.08 177.75L543.55 175.77L543.53 175.74L543.51 175.71L542.13 173.41L542.11 173.37L542.09 173.33L540.95 170.67V170.64L540.93 170.61L540.03 167.55V167.51L540.01 167.47L539.46 163.98V163.95V163.92L539.24 160.01V159.99V159.97L539.59 115.06V114.55L540.1 114.47L553.34 112.28L566.56 110.4L582.28 108.58L582.96 108.5V109.19L582.77 146.4L583.1 151.86L583.75 154.63L584.94 157.26L586.88 159.53L589.77 161.41L591.6 162.13L593.76 162.66L599.33 163.13L605.17 162.97L610.02 162.37L613.86 161.31L616.79 159.75L618.93 157.63L620.38 154.85L621.27 151.21L621.54 146.6V130.19L622.11 130.16L639.71 129.15L653.58 128.58H653.6L664.85 128.45H665.46H665.45Z" fill="#F8C400"/>
</g>
<g style="mix-blend-mode:darken">
<path d="M85.8898 237.93L85.3298 289.84V290.19L85.0298 290.36L35.8598 318.93L34.9398 319.46V318.4L35.1298 265.54V265.18L35.4398 265.01L84.9898 237.39L85.8998 236.88V237.93H85.8898ZM98.9498 53.2399L94.9598 54.4799L91.9398 56.3799L89.7098 58.8499L88.1298 61.8299L87.1298 65.2899L86.6098 69.1199L86.4498 73.2199V130.85L86.5998 135.21L86.9198 137.2L87.5298 139.18L88.5698 141.17L90.0898 143.2L92.2798 145.33L95.2498 147.57L155.89 189.32L160.09 192.39H160.11L160.13 192.42L163.77 195.53L163.8 195.55L163.82 195.58L166.87 198.87L166.9 198.91L166.93 198.95L169.4 202.66L169.43 202.7L169.45 202.75L171.37 207.01L171.39 207.06V207.11L172.72 212.11V212.15L172.74 212.19L173.51 218.14V218.17V218.2L173.77 225.19V243.72L173.44 243.89L123.7 269.41L122.81 269.87V268.87L123.03 241.94L122.9 238.88L122.54 236.22L121.91 233.91L120.9 231.78L119.52 229.72L117.66 227.72L112.14 223.32L58.3798 185.52L52.9398 181.41H52.9298L52.9198 181.39L48.3098 177.44L48.2898 177.42L48.2698 177.4L44.4498 173.43L44.4198 173.4L44.3998 173.37L41.3498 169.23L41.3198 169.19L41.2998 169.15L38.9898 164.69L38.9698 164.65L38.9498 164.6L37.3498 159.64V159.6L37.3298 159.56L36.3498 153.93V153.89V153.85L36.0798 147.42V48.1099L36.4598 44.0499V43.9899L36.4798 43.9299L37.5298 40.3799V40.3299L37.5698 40.2799L39.0698 37.2299L39.0898 37.1899L39.1098 37.1499L40.8198 34.6499L40.8498 34.6099L40.8798 34.5699L44.0398 31.2599L44.0698 31.2299L44.0998 31.2099L44.2998 31.0499L39.2098 28.0799H39.1998L39.1898 28.0599L33.6798 24.4099L33.6498 24.3899L33.6298 24.3699L27.8398 19.6099L26.5298 18.5299H175.04L173.7 19.6099L168.27 23.9999L168.25 24.0199L168.22 24.0399L163 27.4399L162.97 27.4599L162.94 27.4799L157.9 30.0099L158.23 30.1699L158.27 30.1899L158.31 30.2199L160.68 31.8699L160.71 31.8899L160.74 31.9199L163.46 34.4399L163.5 34.4699L163.53 34.5099L166.23 38.0199L166.26 38.0699L166.29 38.1199L168.64 42.7599L168.66 42.7999V42.8399L169.63 45.6199V45.6499L169.65 45.6799L170.37 48.7599V48.7899L170.38 48.8199L170.84 52.2699V52.2999V52.3299L171.02 56.1099V112.25L170.69 112.42L122.04 137.57L121.15 138.03V67.8599L121.02 64.9699L120.56 62.2099L119.66 59.6899L118.26 57.4699L116.16 55.5999L113.2 54.1199L109.22 53.1299L104.09 52.7699L98.9598 53.2199L98.9498 53.2399ZM255.64 110.67L255.07 206.47V206.86L254.71 207.02L212.47 225.79L211.61 226.17V225.23L212.3 154.34L212.17 152.08L211.8 149.9L211.02 147.81L209.77 145.85L207.87 144.07L205.17 142.46L201.48 141.11L195.31 139.8L193.64 139.44L195.16 138.66L215.17 128.42L233.75 119.45L254.78 110.1L255.64 109.72V110.66V110.67ZM669.82 16.7399L667.71 19.0399V19.0599L667.68 19.0699L664.12 22.4299L664.1 22.4499L664.08 22.4699L659.12 26.3499L659.09 26.3699L659.06 26.3899L656.24 28.0799L656.2 28.0999L656.16 28.1199L655.2 28.5299L655.38 28.6499H655.4L655.42 28.6799L657.42 30.2399L657.45 30.2599L657.47 30.2799L659.77 32.5199L659.8 32.5499L659.83 32.5899L662.1 35.5699L662.13 35.6099L662.15 35.6499L664.17 39.3799L664.2 39.4299L664.22 39.4899L665.62 43.9699L665.64 44.0299V44.0899L666.2 49.3999V49.4299V49.4599V101.5L665.62 101.53L655.12 102.02L627.98 103.88L609.44 105.55L588.33 107.83L565.23 110.8L540.09 114.62L539.39 114.73V114.02L539.79 62.8199V62.7999V62.7799L540.18 56.5499V56.5099V56.4699L540.84 52.9499V52.9199L540.85 52.8899L541.92 49.2899V49.2499L541.95 49.2099L543.58 45.6399L543.6 45.5999L543.63 45.5599L545.85 42.1799L545.88 42.1299L545.92 42.0899L548.86 38.9999L548.9 38.9499L548.95 38.9099L551.07 37.4499L546.75 35.5499H546.73L546.71 35.5299L540.85 32.3199H540.83L540.81 32.2999L537.69 30.2599H537.67L537.65 30.2299L533.74 27.2099L532.62 26.3499L534.02 26.1299L545.17 24.3799L557.09 22.7599L573.03 20.8999L592.53 19.0499L615.18 17.3899L640.58 16.2399L669.35 15.6999L670.77 15.6699L669.81 16.7099L669.82 16.7399ZM335.27 78.2699L334.88 173.85V174.26L334.49 174.41L292.63 190.74L291.79 191.07V190.17L292.37 117.11L292 113.16L291.37 110.97L290.27 108.77L288.52 106.7L285.99 104.8L282.42 103.27L276.17 101.85L274.34 101.43L276.06 100.69L294.44 92.8399L312.39 85.6999L334.41 77.6899L335.23 77.3899V78.2599L335.27 78.2699ZM601.09 43.5299L596.76 44.1799L592.88 45.2799L589.62 46.9199L586.91 49.1599L584.9 52.0399L583.61 55.6999L583.14 60.2799L582.98 73.6599L596.44 72.1899L609.54 71.0399L621.54 70.1599V58.0499L621.28 54.0399L620.55 50.8299L619.33 48.3399L617.66 46.4699L615.49 45.0399L612.83 44.0799L609.56 43.5399L605.75 43.3399L601.08 43.5399L601.09 43.5299ZM495.85 34.2099L459.5 134.07L459.4 134.35L459.11 134.44L411.05 149.08L409.88 149.44L410.3 148.29L435.68 79.6099L403.65 87.9799L397.88 90.1299L394.89 91.7099L391.66 93.8199L388.19 96.5499L384.36 99.9999L380.13 104.29L374.53 110.49L373.45 111.69L373.47 110.08L374.06 64.5099V64.0699L374.49 63.9399L385.87 60.4299L414.24 52.2499L432.72 47.3099L452.79 42.3099L473.62 37.5899L495.15 33.4199L496.2 33.2199L495.83 34.2299L495.85 34.2099Z" fill="#FF6B20"/>
</g>
<g style="mix-blend-mode:darken">
<path fill-rule="evenodd" clip-rule="evenodd" d="M123.92 270.46V314.98L123.64 320L122.89 324.4L121.75 328.23L120.32 331.57L118.61 334.42L116.67 336.79L114.6 338.75L112.43 340.36L108.04 342.62L103.98 343.83L100.71 344.34L98.7302 344.45L95.8402 344.22L93.3502 343.66L91.2502 342.71L89.5102 341.48L88.0602 340L86.9102 338.31L85.2902 334.53L84.4802 330.39L84.2002 326.37L84.2402 319.96V291.97L35.8602 320.72V382.26L36.2502 389.82L37.3502 395.49L39.0902 399.64L41.4402 402.67L43.5002 404.36L45.8302 405.74L50.6402 407.6L54.4802 408.53L56.0602 408.77L52.2802 413.75L49.2302 418.36L45.0502 426.07L42.9302 431.2L42.3702 433.07L75.1402 410.77L104.32 391.13L131.54 373.17L153.58 359.17L171.36 348.3L187.53 338.68L185.46 337.46L182.48 336.37L175.33 334.7L166.22 333.32L168.88 329.62L170.74 325.75L171.94 321.82L172.58 317.92L172.85 314.14L172.89 310.52L172.71 304.2L172.5 245.41L123.94 270.44L123.92 270.46ZM36.2202 265.84L36.0402 317.57L84.2302 289.56L84.8102 238.77L36.2202 265.84ZM321.04 180.54L307.78 185.75L293.01 191.79L292.55 227.18L292.37 231.41L291.89 235.25L291.08 238.69L290.06 241.79L288.78 244.52L287.31 246.95L285.67 249.02L283.89 250.84L280.09 253.65L276.12 255.46L272.22 256.46L268.69 256.73L264 256.28L260.38 254.95L257.73 252.96L255.89 250.5L254.68 247.76L254.04 244.94L253.71 239.68L253.97 208.44L239.46 214.61L226.18 220.61L212.72 226.97V261.29L212.9 265.79L213.41 269.85L214.2 273.52L215.25 276.72L216.55 279.55L218 282.03L219.64 284.16L221.4 285.94L225.15 288.6L228.97 290.23L232.64 290.95H236.8L237.31 291.21L237.59 291.59L233.64 296.88L230.46 301.73L226.01 309.77L223.74 315.08L223.12 316.97L249.64 302.7L274.05 290.2L295.89 279.52L314.72 270.7L341.66 258.74L351.4 254.7L345.19 251.05L340.56 247.3L337.32 243.5L335.23 239.71L334.03 235.98L333.48 232.3L333.33 225.6L333.59 175.93L321.03 180.54H321.04ZM411.11 149.76L376.25 244.7L397.68 237.23L419.21 230.34L439.94 224.14L458.95 218.81L488.18 211.15L499.54 208.36L500.1 153.31L497.08 158.86L493.7 163.8L489.99 168.14L486.04 171.91L481.87 175.17L477.55 177.95L473.11 180.35L468.67 182.34L459.82 185.42L451.45 187.54L437.78 190.4L457.82 136.07L411.09 149.77L411.11 149.76ZM234.23 120.47L215.67 129.42L196.87 139.04L201.77 140.06L205.63 141.47L208.53 143.18L210.63 145.15L212.02 147.29L212.85 149.59L213.25 151.92L213.4 154.31L212.72 224.47L253.97 206.12L254.54 111.38L234.22 120.46L234.23 120.47ZM566.68 111.51L553.49 113.38L540.69 115.49L540.34 159.98L540.52 163.86L541.07 167.27L541.96 170.26L543.1 172.89L544.43 175.15L545.93 177.04L549.17 179.96L552.39 181.83L555.19 182.93L557.95 183.51L554.73 185.79L551.93 188.19L547.5 192.91L544.79 196.51L543.85 197.96L562.73 195.06L584.06 192.27L611.33 189.24L625.73 188.04L638.97 187.29L661.07 186.78L675.74 187.01L681.05 187.21L678.09 184.36L674.62 181.84L670.97 179.71L667.38 177.93L661.45 175.6L658.99 174.81L661.47 172.26L663.14 169.36L664.08 165.81L664.36 161.27V129.55L653.65 129.65L639.76 130.24L622.65 131.19V146.6L622.37 151.36L621.43 155.24L619.8 158.29L617.42 160.62L614.26 162.33L610.23 163.41L605.23 164.03L599.29 164.21L593.61 163.72L591.28 163.16L589.3 162.35L586.18 160.33L584.04 157.8L582.7 154.99L582.01 152.02L581.68 146.41L581.9 109.7L566.69 111.48L566.68 111.51ZM312.82 86.7401L294.88 93.8601L277.92 101.11L282.82 102.21L286.55 103.86L289.32 105.9L291.21 108.16L292.44 110.55L293.1 112.95L293.47 117.06L292.9 189.45L333.79 173.51L334.17 78.9401L312.82 86.7301V86.7401ZM342.24 82.4701L341.59 230.6L341.82 238.3L342.3 241.67L343.25 244.73L344.81 247.47L347.13 249.93L350.31 252.1L354.57 253.97L361.79 261.12L350.08 266.08L319.28 279.89L298.76 289.57L275.93 300.87L251.54 313.54L226.45 327.41L219.41 320.93L220.03 318.67L222.23 312.59L224.1 308.48L226.51 303.79L229.56 298.71L233.31 293.3L232.31 293.25L229.76 292.81L226.12 291.66L221.97 289.34L219.87 287.65L217.83 285.52L215.92 282.92L214.21 279.78L212.76 276.07L211.64 271.76L210.9 266.74L210.65 261.06L211.03 198.18L211.4 154.08L211.16 151.43L210.42 149.06L209.14 146.92L207.23 145.08L204.73 143.5L201.54 142.14L197.63 141.08L192.96 140.26L192.56 140.11L192.45 139.76L193.45 138.87L213.62 128.56L233.53 118.92L256.47 108.46L262.86 114.87L262.04 236.02L262.22 246.83L262.71 251.65L263.12 253.21L263.69 253.97L266.49 254.55L268.79 254.6L271.52 254.32L274.56 253.6L277.79 252.38L281.06 250.47L284.3 247.76L285.64 246.16L286.84 244.34L288.62 240.24L289.82 235.7L290.51 231.01L290.87 222.44L290.78 216.82L291.51 117.8L291.03 113.59L289.69 110.17L287.65 107.51L285.1 105.47L282.21 104.01L279.13 103.02L276.08 102.43L273.18 102.13L272.82 101.99L272.89 101.62L274.01 100.74L294.8 91.8501L314.27 84.0201L335.56 76.3501L342.23 82.4601L342.24 82.4701ZM607.27 50.5501L603.63 50.9901L600.18 51.8801L597.07 53.2801L594.43 55.2701L592.39 57.9701L591.05 61.4401L590.56 65.8001V71.7301L620.25 69.3101V55.5901L620.14 53.7301L619.73 52.3701L619.04 51.4201L618.06 50.8601L615.18 50.4301H610.97L607.28 50.5601L607.27 50.5501ZM609.71 42.4301L613.11 43.0201L616.01 44.0701L618.4 45.5901L620.26 47.7201L621.58 50.4701L622.39 53.8501L622.65 58.0001V71.1701L609.63 72.1201L596.54 73.2701L581.9 74.8701L582.06 60.2101L582.54 55.4401L583.91 51.5101L586.11 48.3901L589.01 46.0001L592.52 44.2401L596.56 43.0801L601.02 42.4401L605.78 42.2601L609.72 42.4201L609.71 42.4301ZM473.86 38.6601L453.06 43.3501L432.96 48.3701L414.56 53.3101L386.19 61.4801L375.15 64.8801L374.58 108.81L379.34 103.55L383.6 99.2001L387.5 95.6901L391.02 92.9401L394.33 90.7701L397.44 89.1401L403.35 86.9401L437.46 78.0301L411.68 147.75L458.56 133.48L494.54 34.6501L473.86 38.6701V38.6601ZM503.62 38.5301L450.97 185.18L458.04 183.78L465.18 181.71L472.26 178.79L475.75 176.92L479.13 174.78L482.45 172.3L485.69 169.49L488.79 166.28L491.77 162.68L494.58 158.62L497.24 154.14L499.7 149.18L501.96 143.67L508.64 150.17L507.89 216.53L498.17 218.83L471.26 225.82L452.4 231.15L430.46 237.74L405.85 245.56L379.01 254.72L372.53 248.78L430.94 89.3501L418.13 92.7901L407.48 95.8501L403.11 97.5601L399 99.9301L394.83 103.2L390.31 107.79L385.18 114.02L379.12 122.26L372.45 115.41L373.28 63.5701L385.12 59.9301L415.26 51.2401L434.6 46.1201L455.39 40.9601L476.66 36.2701L497.33 32.4201L503.6 38.5301H503.62ZM34.2602 23.5301L39.7502 27.1701L46.2302 30.9501L44.8002 32.0501L41.6802 35.3401L40.0102 37.7401L38.5602 40.7201L37.5302 44.1901L37.1502 48.1801V147.36L37.4502 153.75L38.3802 159.34L39.9702 164.23L42.2402 168.62L45.2702 172.72L49.0402 176.61L53.6302 180.54L59.0402 184.66L112.81 222.46L118.4 226.92L120.36 229.05L121.87 231.23L122.93 233.53L123.62 236.03L124 238.78L124.11 241.92L123.93 268.06L172.7 243.03V225.24L172.44 218.22L171.67 212.34L170.35 207.4L168.48 203.23L166.05 199.59L163.06 196.34L159.46 193.27L155.28 190.21L94.6502 148.5L91.6002 146.17L89.2902 143.93L87.6502 141.76L86.5502 139.61L85.8902 137.48L85.5302 135.31L85.3802 130.87V73.2201L85.5402 69.0501L86.0902 65.1001L87.1402 61.4301L88.8502 58.2301L91.2502 55.5301L94.5202 53.4701L98.7802 52.1701L104.11 51.7301L109.42 52.0801L113.6 53.1101L116.79 54.6901L119.09 56.7801L120.69 59.2301L121.64 61.9501L122.13 64.8701L122.26 67.8601V136.25L169.92 111.58V56.1501L169.74 52.4101L169.3 49.0301L168.58 45.9701L167.67 43.2501L165.34 38.6801L162.69 35.2401L160.01 32.7801L157.73 31.1701L155.46 30.0401L162.42 26.5301L167.62 23.1701L171.96 19.6401H29.5402L34.2602 23.5401V23.5301ZM184.15 23.7101L182.98 24.8701L179.54 27.7501L174 31.6001L170.49 33.6001L166.56 35.5501L171.24 40.9801L173.21 43.5301L174.88 46.1801L176.22 49.0601L177.21 52.3901L177.83 56.2901L178.04 60.9601V118.41L127.05 144.56L119.81 137.51L120.4 70.9501L120.06 66.0301L119.37 62.9701L118.68 61.3901L118.34 60.9601L115.77 60.2001L113.11 59.6901L110 59.4501L105.57 59.8401L102.91 60.5901L100.31 61.9301L97.8602 64.0801L95.9002 67.2001L94.5602 71.4801L94.0702 77.0801L93.7102 138.08L93.8202 140.98L94.3102 143.56L95.4102 145.83L97.4102 147.9L127.85 168.97L159.7 190.73L165.82 195.47L170.67 200.5L174.44 205.7L177.23 210.92L179.18 216.12L180.39 221.09L181.04 225.85L181.24 230.21L181.4 317.73L180.99 325.39L180.1 330.07L179.21 332.48L178.8 333.12L181.46 333.73L187.61 335.62L191.12 337.09L194.43 338.91L197.26 341.09L199.19 343.68L176.92 357.1L152.03 372.71L120.57 393.17L89.5702 414.09L65.6202 430.66L44.7302 445.49L37.6902 438.8L38.2002 436.54L40.2002 430.39L42.0202 426.18L44.4802 421.36L47.7202 416.07L51.8002 410.43L48.9702 409.9L46.0802 408.87L42.8002 407.04L39.4902 404.19L37.9602 402.28L36.6202 400.04L35.4702 397.41L34.5702 394.4L34.0202 390.99L33.7902 387.07L34.0002 264.69L86.4702 235.41L92.7502 242.1L92.5702 318.85L92.7502 325.86L93.2602 333.07L93.9602 338.81L94.3602 340.65L94.7702 341.47L97.1402 342.05L99.2502 342.1L101.9 341.82L104.97 341.03L108.33 339.62L111.9 337.38L115.55 334.24L118.2 330.9L120.18 326.8L121.45 322.18L121.88 317.16V242.99L121.8 238.4L121.51 236.23L120.86 234.09L119.78 231.9L118.05 229.64L115.55 227.22L112.23 224.62L51.5902 181.63L47.1502 177.97L44.4302 175.2L41.6702 171.73L39.1402 167.5L37.0502 162.45L35.6402 156.55L35.1102 149.72V50.4201L35.4402 45.2701L36.2602 41.0901L37.4602 37.7701L38.8102 35.2301L40.1602 33.4201L41.3502 32.1901L42.5102 31.3301L34.3002 26.3301L27.8502 21.8101L25.1702 19.5401L23.2402 17.4201H177.49L184.15 23.7201V23.7101ZM640.6 17.3401L615.25 18.5101L592.62 20.1501L573.13 22.0001L557.25 23.8601L545.34 25.4801L535.31 27.0601L538.3 29.3301L541.41 31.3701L547.22 34.5801L553.3 37.2401L549.61 39.8001L546.72 42.7901L544.54 46.1101L542.98 49.6001L541.91 53.1601L541.27 56.6101L540.87 62.8101L540.48 113.42L565.05 109.67L588.19 106.7L609.33 104.44L627.88 102.77L655.02 100.93L665.08 100.45V49.4801L664.54 44.2301L663.16 39.8201L661.2 36.1701L658.95 33.2601L656.72 31.0601L654.73 29.5201L652.84 28.3301L655.69 27.1001L658.45 25.4301L663.39 21.6101L666.9 18.2701L668.23 16.8401L640.58 17.3301L640.6 17.3401ZM681.23 19.9901L679.96 21.5901L676.39 25.3901L673.82 27.7101L670.83 30.0401L667.41 32.2101L663.63 34.1001L665.19 35.3801L666.79 37.0001L668.61 39.3301L670.46 42.3601L672.08 46.1401L673.2 50.6801L673.64 55.9601L673.43 106.58L673.34 107.72L672.86 108.61L671.79 109.17L669.9 109.35L661.96 109.58L644.48 110.5L619.88 112.41L605.62 113.86L590.53 115.67L590.18 149.42L590.6 156.76L591.12 159.45L591.83 160.9L592.91 161.51L594.51 161.91L599.82 162.21L604.02 162.1L607.94 161.72L611.48 160.96L614.53 159.71L617.06 157.82L618.96 155.22L620.15 151.8L620.59 147.37V129.41L666.56 127.37L673.22 133.49V165.74L672.87 171.82L672.1 175.42L671.33 177.16L671 177.59L673.17 178.84L678.45 182.27L685.24 187.62L688.63 190.89L691.77 194.47L678.66 194.62L663.78 195.04L644.72 195.94L622.47 197.39L598.07 199.64L572.49 202.82L559.59 204.82L546.79 207.09L539.93 200.24L541.03 198.37L544.1 193.92L548.53 188.64L551.11 186.25L553.84 184.28L551.4 183.36L548.89 182.02L546.04 179.92L543.18 176.99L540.68 173.02L539.69 170.63L538.92 167.95L538.43 164.96L538.25 161.68L538.82 61.5601L539.3 54.3901L539.96 51.2301L540.97 48.2901L542.37 45.5201L544.23 42.8701L546.55 40.3401L549.39 37.8101L547.38 36.8701L542.48 34.2901L536.48 30.5301L533.68 28.3301L531.23 25.9401L542.48 24.1301L555.7 22.2601L573.23 20.1101L594.62 18.0401L619.23 16.2801L646.55 15.1301L676.04 14.8701L681.22 20.0301L681.23 19.9901Z" fill="black"/>
</g>
</g>
<defs>
<clipPath id="clip0_2_46">
<rect width="721" height="471" fill="white"/>
</clipPath>
</defs>
</svg>
