<svg width="714" height="462" viewBox="0 0 714 462" fill="none" xmlns="http://www.w3.org/2000/svg">
<path d="M582.553 27.4483V47.3772C582.553 52.3373 578.452 56.3443 573.416 56.3443H496.223C491.169 56.3443 487.086 60.3689 487.086 65.3114V126.457C487.086 131.417 491.187 135.424 496.223 135.424H590.341C595.395 135.424 599.477 139.449 599.477 144.391V159.007C599.477 163.967 603.578 167.974 608.614 167.974H684.441C689.495 167.974 693.577 163.949 693.577 159.007V27.4483C693.577 22.4882 689.477 18.4812 684.441 18.4812H591.672C586.618 18.4812 582.535 22.5058 582.535 27.4483H582.553Z" fill="#FFDF00"/>
<path d="M684.458 185.944H608.613C603.567 185.944 599.477 189.959 599.477 194.911V232.686C599.477 237.638 603.567 241.653 608.613 241.653H684.458C689.504 241.653 693.595 237.638 693.595 232.686V194.911C693.595 189.959 689.504 185.944 684.458 185.944Z" fill="#FFDF00"/>
<path d="M666.311 387.951H608.613C603.567 387.951 599.477 391.965 599.477 396.918V453.033C599.477 457.985 603.567 462 608.613 462H666.311C671.357 462 675.447 457.985 675.447 453.033V396.918C675.447 391.965 671.357 387.951 666.311 387.951Z" fill="#FFDF00"/>
<path d="M572.067 148.204H496.223C491.177 148.204 487.086 152.219 487.086 157.171V232.686C487.086 237.638 491.177 241.653 496.223 241.653H572.067C577.113 241.653 581.204 237.638 581.204 232.686V157.171C581.204 152.219 577.113 148.204 572.067 148.204Z" fill="#FFDF00"/>
<path d="M627.139 259.852H496.223C491.169 259.852 487.086 263.876 487.086 268.819V287.918C487.086 292.878 491.187 296.885 496.223 296.885H590.341C595.395 296.885 599.477 300.91 599.477 305.852V361.861C599.477 366.822 603.578 370.829 608.614 370.829H703.865C708.919 370.829 713.002 366.804 713.002 361.861V268.801C713.002 263.841 708.901 259.834 703.865 259.834H627.121L627.139 259.852Z" fill="#FFDF00"/>
<path d="M572.047 314.996H458.559C453.512 314.996 449.422 319.011 449.422 323.963V434.693C449.422 439.645 453.512 443.66 458.559 443.66H572.047C577.093 443.66 581.184 439.645 581.184 434.693V323.963C581.184 319.011 577.093 314.996 572.047 314.996Z" fill="#FFDF00"/>
<path d="M338.719 158.407V101.868C338.719 96.9081 334.619 92.9011 329.583 92.9011H271.598C266.544 92.9011 262.461 96.9257 262.461 101.868V231.468C262.461 236.428 266.562 240.435 271.598 240.435H272.083C277.137 240.435 281.22 244.459 281.22 249.402V251.273C281.22 256.233 285.321 260.24 290.356 260.24H367.622C372.676 260.24 376.759 256.215 376.759 251.273V176.359C376.759 171.399 372.658 167.392 367.622 167.392H347.838C342.784 167.392 338.701 163.367 338.701 158.425L338.719 158.407Z" fill="#FFDF00"/>
<path d="M461.071 167.392H403.445C398.391 167.392 394.308 171.416 394.308 176.359V269.401C394.308 274.362 390.208 278.369 385.172 278.369C380.118 278.369 376.035 282.393 376.035 287.336V360.908C376.035 365.868 380.136 369.875 385.172 369.875H423.823C428.877 369.875 432.959 365.851 432.959 360.908V305.04C432.959 300.08 437.06 296.073 442.096 296.073H461.071C466.124 296.073 470.207 292.049 470.207 287.106V176.359C470.207 171.399 466.106 167.392 461.071 167.392Z" fill="#FFDF00"/>
<path d="M554.26 0H460.088C455.034 0 450.951 4.0246 450.951 8.9671V9.49666C450.951 14.4568 446.851 18.4638 441.815 18.4638H271.582C266.528 18.4638 262.445 22.4884 262.445 27.4309V68.0829C262.445 73.043 266.546 77.05 271.582 77.05H347.031C352.085 77.05 356.168 81.0746 356.168 86.0171V140.914C356.168 145.874 360.268 149.881 365.304 149.881H460.322C465.376 149.881 469.458 145.857 469.458 140.914V47.9952C469.458 43.035 473.559 39.0281 478.595 39.0281H554.242C559.296 39.0281 563.379 35.0035 563.379 30.061V8.9671C563.379 4.00695 559.278 0 554.242 0H554.26Z" fill="#FFDF00"/>
<path d="M133.127 27.4485V47.3774C133.127 52.3375 129.026 56.3445 123.991 56.3445H46.7968C41.7429 56.3445 37.6602 60.3691 37.6602 65.3116V126.457C37.6602 131.417 41.7608 135.424 46.7968 135.424H140.915C145.969 135.424 150.051 139.449 150.051 144.392V159.007C150.051 163.967 154.152 167.974 159.188 167.974H235.015C240.069 167.974 244.152 163.95 244.152 159.007V27.4485C244.152 22.4884 240.051 18.4814 235.015 18.4814H142.246C137.192 18.4814 133.109 22.506 133.109 27.4485H133.127Z" fill="#FFDF00"/>
<path d="M235.032 185.944H159.187C154.141 185.944 150.051 189.959 150.051 194.911V232.686C150.051 237.638 154.141 241.653 159.187 241.653H235.032C240.078 241.653 244.169 237.638 244.169 232.686V194.911C244.169 189.959 240.078 185.944 235.032 185.944Z" fill="#FFDF00"/>
<path d="M216.885 387.951H159.187C154.141 387.951 150.051 391.965 150.051 396.918V453.033C150.051 457.985 154.141 462 159.187 462H216.885C221.931 462 226.021 457.985 226.021 453.033V396.918C226.021 391.965 221.931 387.951 216.885 387.951Z" fill="#FFDF00"/>
<path d="M357.208 378.984V287.336C357.208 282.375 353.108 278.369 348.072 278.369H290.374C285.32 278.369 281.238 282.393 281.238 287.336V378.984C281.238 383.944 277.137 387.951 272.101 387.951H253.324C248.27 387.951 244.188 391.975 244.188 396.918V453.033C244.188 457.993 248.288 462 253.324 462H423.665C428.719 462 432.801 457.975 432.801 453.033V396.918C432.801 391.958 428.701 387.951 423.665 387.951H366.363C361.309 387.951 357.226 383.926 357.226 378.984H357.208Z" fill="#FFDF00"/>
<path d="M122.642 148.204H46.7968C41.7508 148.204 37.6602 152.219 37.6602 157.171V232.686C37.6602 237.638 41.7508 241.653 46.7968 241.653H122.642C127.688 241.653 131.778 237.638 131.778 232.686V157.171C131.778 152.219 127.688 148.204 122.642 148.204Z" fill="#FFDF00"/>
<path d="M177.695 259.852H46.7968C41.7429 259.852 37.6602 263.876 37.6602 268.819V287.918C37.6602 292.878 41.7608 296.885 46.7968 296.885H140.915C145.969 296.885 150.052 300.91 150.052 305.852V361.861C150.052 366.822 154.152 370.828 159.188 370.828H254.439C259.493 370.828 263.576 366.804 263.576 361.861V268.801C263.576 263.841 259.475 259.834 254.439 259.834H177.695V259.852Z" fill="#FFDF00"/>
<path d="M122.625 314.996H9.13663C4.09061 314.996 0 319.011 0 323.963V434.693C0 439.645 4.09061 443.66 9.13663 443.66H122.625C127.671 443.66 131.762 439.645 131.762 434.693V323.963C131.762 319.011 127.671 314.996 122.625 314.996Z" fill="#FFDF00"/>
</svg>
